<?xml version="1.0" encoding="utf-8"?>
<!-- Generator: Adobe Illustrator 17.0.2, SVG Export Plug-In . SVG Version: 6.00 Build 0)  -->
<!DOCTYPE svg PUBLIC "-//W3C//DTD SVG 1.1//EN" "http://www.w3.org/Graphics/SVG/1.1/DTD/svg11.dtd">
<svg version="1.1" id="Layer_1" xmlns="http://www.w3.org/2000/svg" xmlns:xlink="http://www.w3.org/1999/xlink" x="0px" y="0px"
	 width="475.439px" height="244.001px" viewBox="0 0 475.439 244.001" enable-background="new 0 0 475.439 244.001"
	 xml:space="preserve">
<path fill="#FFFFFF" d="M6.451,232.019l3.212-1.435l-0.945-0.088l2.432-3.028c2.09-2.699,4.363-5.278,6.691-7.837
	c-3.692-0.334-7.317-0.759-10.851-1.234L0,217.453l6.376-3.013c11.534-5.522,22.637-11.669,33.432-18.298
	c27.917-30.162,63.036-52.725,95.162-77.848l3.032,2.819c-3.979,5.815-8.395,11.269-13.122,16.366
	c9.529-6.437,19.178-12.655,29.067-18.459l2.478,3.357c-23.087,21.145-51.179,36.599-77.775,53.536
	c-7.095,5.077-14.245,10.067-21.209,15.169C201.678,146.823,347.015,86.325,473.031,0l2.408,3.456
	C362.282,80.93,233.898,137.598,104.664,180.417c114.46-31.588,232.569-81.184,332.469-132.626l2.333,3.438
	c-94.969,80.575-262.925,117.54-387.932,166.317c34.468,1.664,71.163,3.53,102.096,19.92c0.684,0.341,1.332,0.681,2.017,1.066
	l-0.29,1.013c0.506,0.096,1.109,0.211,1.686,0.311l-0.787,4.146c-4.219-0.819-8.473-1.517-12.857-2.174
	c-43.559-2.304-91.55-2.217-130.056-8.671L6.451,232.019L6.451,232.019z"/>
</svg>
