<?xml version="1.0" encoding="utf-8"?>
<!-- Generator: Adobe Illustrator 17.0.2, SVG Export Plug-In . SVG Version: 6.00 Build 0)  -->
<!DOCTYPE svg PUBLIC "-//W3C//DTD SVG 1.1//EN" "http://www.w3.org/Graphics/SVG/1.1/DTD/svg11.dtd">
<svg version="1.1" id="Layer_1" xmlns="http://www.w3.org/2000/svg" xmlns:xlink="http://www.w3.org/1999/xlink" x="0px" y="0px"
	 width="116.468px" height="127.999px" viewBox="5.766 0 116.468 127.999" enable-background="new 5.766 0 116.468 127.999"
	 xml:space="preserve">
<g>
	<path fill="#FFFFFF" d="M94.292,54.099C93.551,38.484,80.243,26,63.996,26c-16.721,0-30.325,13.218-30.325,29.465
		c0,0.995,0.057,2.01,0.172,3.083c0.724,7.441,3.917,13.387,7.298,19.682c3.951,7.356,8.036,14.962,8.597,25.872l0.041,0.787v9.742
		c0,7.371,6.168,13.368,13.75,13.368c7.584,0,13.755-5.997,13.755-13.368v-8.884l0.089-1.64c0.592-10.889,4.899-18.488,9.065-25.837
		c3.569-6.297,6.941-12.244,7.709-19.689c0.064-0.603,0.182-2.612,0.182-3.116l-0.005-1.355L94.292,54.099z M73.284,114.632
		c0,5.166-4.376,9.368-9.755,9.368c-5.376,0-9.75-4.202-9.75-9.368V106h19.505V114.632z M90.17,58.165
		c-0.684,6.619-3.854,12.212-7.211,18.134c-3.963,6.989-8.425,14.86-9.44,25.701H53.6c-0.962-10.816-5.185-18.681-8.935-25.662
		c-3.186-5.932-6.195-11.534-6.842-18.196c-0.102-0.95-0.152-1.826-0.152-2.677C37.671,41.423,49.48,30,63.996,30
		C78.51,30,90.32,41.424,90.324,55.465l0.001,0.182C90.305,56.228,90.217,57.722,90.17,58.165z"/>
	<path fill="#FFFFFF" d="M64,18c1.104,0,2-0.896,2-2V2c0-1.104-0.896-2-2-2s-2,0.896-2,2v14C62,17.104,62.896,18,64,18z"/>
	<path fill="#FFFFFF" d="M120.234,56.234h-14c-1.104,0-2,0.896-2,2s0.896,2,2,2h14c1.104,0,2-0.896,2-2
		S121.339,56.234,120.234,56.234z"/>
	<path fill="#FFFFFF" d="M23.766,58.234c0-1.104-0.896-2-2-2h-14c-1.104,0-2,0.896-2,2s0.896,2,2,2h14
		C22.871,60.234,23.766,59.338,23.766,58.234z"/>
	<path fill="#FFFFFF" d="M113.701,84.619l-12.124-7c-0.96-0.553-2.18-0.224-2.732,0.732c-0.552,0.957-0.225,2.18,0.732,2.732
		l12.124,7c0.315,0.182,0.659,0.268,0.998,0.268c0.691,0,1.363-0.358,1.734-1C114.985,86.395,114.658,85.172,113.701,84.619z"/>
	<path fill="#FFFFFF" d="M28.425,35.385l-12.124-7c-0.957-0.554-2.18-0.225-2.732,0.732s-0.225,2.18,0.732,2.732l12.124,7
		c0.315,0.182,0.659,0.269,0.998,0.269c0.691,0,1.364-0.359,1.734-1C29.709,37.161,29.381,35.938,28.425,35.385z"/>
	<path fill="#FFFFFF" d="M84.118,23.39c0.315,0.182,0.659,0.269,0.998,0.269c0.691,0,1.363-0.359,1.734-1l7-12.124
		c0.552-0.957,0.225-2.18-0.732-2.732c-0.96-0.554-2.18-0.224-2.732,0.732l-7,12.124C82.834,21.615,83.161,22.838,84.118,23.39z"/>
	<path fill="#FFFFFF" d="M26.424,77.619l-12.124,7c-0.957,0.553-1.284,1.775-0.732,2.732c0.371,0.642,1.042,1,1.734,1
		c0.339,0,0.683-0.086,0.998-0.268l12.124-7c0.957-0.553,1.284-1.775,0.732-2.732C28.603,77.396,27.381,77.068,26.424,77.619z"/>
	<path fill="#FFFFFF" d="M100.578,39.118c0.339,0,0.683-0.086,0.998-0.269l12.125-7c0.957-0.552,1.284-1.775,0.732-2.732
		c-0.554-0.957-1.774-1.286-2.732-0.732l-12.125,7c-0.957,0.552-1.284,1.775-0.732,2.732
		C99.215,38.759,99.887,39.118,100.578,39.118z"/>
	<path fill="#FFFFFF" d="M41.151,22.658c0.37,0.642,1.042,1,1.734,1c0.339,0,0.683-0.086,0.998-0.269
		c0.957-0.552,1.284-1.775,0.732-2.732l-7-12.125c-0.551-0.957-1.776-1.286-2.732-0.732c-0.957,0.552-1.284,1.775-0.732,2.732
		L41.151,22.658z"/>
</g>
</svg>
