<?xml version="1.0" encoding="utf-8"?>
<!-- Generator: Adobe Illustrator 17.0.2, SVG Export Plug-In . SVG Version: 6.00 Build 0)  -->
<!DOCTYPE svg PUBLIC "-//W3C//DTD SVG 1.1//EN" "http://www.w3.org/Graphics/SVG/1.1/DTD/svg11.dtd">
<svg version="1.1" id="Layer_1" xmlns="http://www.w3.org/2000/svg" xmlns:xlink="http://www.w3.org/1999/xlink" x="0px" y="0px"
	 width="110.252px" height="390.741px" viewBox="0 0 110.252 390.741" enable-background="new 0 0 110.252 390.741"
	 xml:space="preserve">
<g id="pM0ZuS_1_">
	<g>
		<path fill="#ffffff" d="M0.157,189.563c1.368-4.511,7.18-14.801,7.18-14.801S65.297,60.755,94.247,3.736
			c1.455-2.865,4.73-5.061,8.906-2.802c3.965,2.145,2.855,7.709,1.644,10.086C74.939,69.621,45.111,128.237,15.521,186.973
			c-1.238,2.457-1.203,6.634,0.039,9.105c29.887,59.432,93.487,185.008,93.487,185.008s3.43,5.914-1.286,8.701
			c-6.216,3.322-8.854-3.093-8.854-3.093s-21.238-39.662-32.12-60.99C45.793,284.56,4.214,202.062,4.214,202.062
			S-0.955,193.229,0.157,189.563z"/>
	</g>
</g>
</svg>
