<?xml version="1.0" encoding="utf-8"?>
<!-- Generator: Adobe Illustrator 17.0.2, SVG Export Plug-In . SVG Version: 6.00 Build 0)  -->
<!DOCTYPE svg PUBLIC "-//W3C//DTD SVG 1.1//EN" "http://www.w3.org/Graphics/SVG/1.1/DTD/svg11.dtd">
<svg version="1.1" id="els2_x5F_multimedia" xmlns="http://www.w3.org/2000/svg" xmlns:xlink="http://www.w3.org/1999/xlink"
	 x="0px" y="0px" width="35.572px" height="35.839px" viewBox="2.098 2.339 35.572 35.839"
	 enable-background="new 2.098 2.339 35.572 35.839" xml:space="preserve">
<polygon fill="#FFFFFF" fill-opacity=".6" points="11.663,34.501 11.663,31.633 6.723,33.279 8.37,28.341 5.502,28.341 8.994,24.85 8.054,23.908
	2.29,29.671 6.524,29.671 4.621,35.383 10.333,33.479 10.333,37.712 16.096,31.95 15.156,31.009 "/>
<path fill="#FFFFFF" d="M37.37,3.06l-0.105-0.315l-0.315-0.105C34.044,1.67,23.821,2.82,17.195,9.446
	c-0.296,0.296-0.581,0.593-0.854,0.89l-2.764-0.282c-2.386-0.247-4.575,0.821-5.856,2.845l-5.622,8.876l9.025,0.578
	c0.185,1.754,0.893,3.287,2.067,4.461c1.185,1.184,2.733,1.893,4.506,2.069l0.714,9.294l8.839-5.892
	c1.936-1.29,2.955-3.441,2.728-5.756l-0.285-2.884c0.291-0.269,0.582-0.547,0.87-0.836C37.189,16.185,38.338,5.963,37.37,3.06z
	 M29.621,21.87c-0.355,0.356-0.713,0.694-1.07,1.017l-0.248,0.225l0.35,3.55c0.182,1.844-0.599,3.49-2.142,4.518l-6.948,4.632
	l-0.631-8.197l-0.596-0.02c-1.679-0.054-3.133-0.648-4.206-1.721c-1.065-1.064-1.66-2.507-1.721-4.171l-0.022-0.601l-7.965-0.51
	l4.421-6.981c1.007-1.588,2.723-2.422,4.598-2.233l3.432,0.35l0.226-0.25c0.328-0.364,0.672-0.728,1.035-1.09
	c5.909-5.908,15.055-7.248,18.06-6.577C36.776,6.601,35.57,15.923,29.621,21.87z"/>
<path fill="#FFFFFF" fill-opacity=".8" d="M26.974,8.602c-1.184,0-2.296,0.461-3.132,1.298c-0.838,0.836-1.299,1.949-1.299,3.133
	s0.461,2.296,1.299,3.133c0.863,0.864,1.998,1.295,3.133,1.295s2.27-0.432,3.134-1.295c0.836-0.837,1.297-1.95,1.297-3.133
	s-0.461-2.296-1.298-3.132C29.271,9.062,28.158,8.602,26.974,8.602z M29.169,15.225c-1.211,1.208-3.178,1.208-4.387,0
	c-0.586-0.586-0.908-1.364-0.908-2.192s0.322-1.606,0.909-2.192c0.585-0.586,1.363-0.909,2.191-0.909
	c0.829,0,1.607,0.323,2.194,0.909v0c0.585,0.584,0.908,1.363,0.908,2.191C30.077,13.86,29.754,14.639,29.169,15.225z"/>
</svg>
