<?xml version="1.0" encoding="utf-8"?>
<!-- Generator: Adobe Illustrator 17.0.2, SVG Export Plug-In . SVG Version: 6.00 Build 0)  -->
<!DOCTYPE svg PUBLIC "-//W3C//DTD SVG 1.1//EN" "http://www.w3.org/Graphics/SVG/1.1/DTD/svg11.dtd">
<svg version="1.1" id="els2_x5F_multimedia" xmlns="http://www.w3.org/2000/svg" xmlns:xlink="http://www.w3.org/1999/xlink"
	 x="0px" y="0px" width="35.568px" height="35.834px" viewBox="2.098 2.343 35.568 35.834"
	 enable-background="new 2.098 2.343 35.568 35.834" xml:space="preserve">
<path fill="none" stroke="#FFFFFF" stroke-width="1.33" stroke-miterlimit="10" d="M8.524,24.379L8.524,24.379l-4.628,4.627h3.551
	l-1.775,5.325l5.326-1.775v3.55l4.628-4.627 M29.638,10.37c1.471,1.469,1.471,3.854,0,5.325c-1.47,1.47-3.855,1.47-5.326,0
	c-1.471-1.471-1.471-3.855,0-5.325C25.782,8.899,28.167,8.899,29.638,10.37L29.638,10.37z M36.739,3.27
	c0.888,2.662-0.275,12.7-6.647,19.07c-0.364,0.364-0.73,0.71-1.095,1.04l0.317,3.216c0.205,2.083-0.691,3.975-2.434,5.136
	l-7.894,5.262l-0.672-8.735c-1.846-0.06-3.447-0.709-4.654-1.915c-1.198-1.198-1.848-2.786-1.915-4.617L3.26,21.184l5.022-7.929
	c1.148-1.812,3.092-2.756,5.227-2.539l3.097,0.315c0.335-0.372,0.688-0.744,1.059-1.115C24.037,3.545,34.076,2.383,36.739,3.27z"/>
</svg>
