<?xml version="1.0" encoding="utf-8"?>
<!-- Generator: Adobe Illustrator 17.0.2, SVG Export Plug-In . SVG Version: 6.00 Build 0)  -->
<!DOCTYPE svg PUBLIC "-//W3C//DTD SVG 1.1//EN" "http://www.w3.org/Graphics/SVG/1.1/DTD/svg11.dtd">
<svg version="1.1" id="Layer_1" xmlns="http://www.w3.org/2000/svg" xmlns:xlink="http://www.w3.org/1999/xlink" x="0px" y="0px"
	 width="29.559px" height="30.188px" viewBox="9.161 3.812 29.559 30.188" enable-background="new 9.161 3.812 29.559 30.188"
	 xml:space="preserve">
<path fill="#FFFFFF" d="M18.833,19.253c-2.061,1.26-3.789,2.09-5.954,3.14c-0.776,0.345-1.431,0.928-1.906,1.63
	c-0.846,1.244-1.372,2.687-1.638,4.163c-0.094,0.526-0.215,1.061-0.161,1.599c0.127,0.471,0.619,0.695,1.04,0.846
	c1.286,0.399,2.625,0.575,3.954,0.767c1.628,0.264,2.725,0.407,4.372,0.502c1.179,0.056,2.36,0.098,3.541,0.099
	c1.181-0.001,2.361-0.043,3.541-0.099c1.647-0.094,2.743-0.238,4.372-0.502c1.329-0.192,2.668-0.369,3.954-0.767
	c0.421-0.151,0.912-0.375,1.039-0.846c0.055-0.538-0.066-1.073-0.161-1.599c-0.266-1.476-0.792-2.919-1.638-4.163
	c-0.474-0.702-1.13-1.285-1.906-1.63c-2.165-1.05-3.893-1.88-5.954-3.141c0.713-0.784,1.168-1.765,1.437-2.782
	c1.032-1.109,1.761-2.617,1.59-4.164c-0.014-0.364-0.137-0.811-0.562-0.865c-0.011-0.922-0.02-1.844-0.041-2.766
	c-0.081-1.544-0.829-3.102-2.146-3.956c-1.038-0.69-2.294-0.898-3.525-0.906c-1.231,0.008-2.487,0.216-3.525,0.906
	c-1.318,0.854-2.065,2.413-2.147,3.956c-0.02,0.923-0.03,1.845-0.041,2.767c-0.425,0.054-0.548,0.5-0.562,0.865
	c-0.171,1.547,0.558,3.055,1.59,4.164C17.665,17.488,18.12,18.47,18.833,19.253z M17.532,12.479l0.012-1.024l0.003-0.235
	c0.01-0.839,0.019-1.678,0.036-2.483c0.067-1.269,0.685-2.431,1.624-3.04c0.704-0.468,1.644-0.7,2.874-0.71
	c1.23,0.009,2.17,0.242,2.886,0.717c0.928,0.601,1.546,1.763,1.611,2.996c0.019,0.84,0.028,1.679,0.038,2.519l0.003,0.235
	l0.012,1.024l0.568,0.072c0.072,1.025-0.395,2.155-1.293,3.12l-0.2,0.216l-0.075,0.284c-0.249,0.941-0.642,1.712-1.17,2.292
	l-0.956,1.051l1.212,0.741c2.041,1.248,3.802,2.103,5.841,3.092l0.249,0.12c0.551,0.245,1.038,0.665,1.412,1.217
	c0.709,1.043,1.198,2.292,1.453,3.71l0.037,0.204c0.054,0.29,0.105,0.569,0.116,0.817c-0.05,0.026-0.122,0.058-0.224,0.095
	c-1.11,0.344-2.272,0.511-3.502,0.688l-0.292,0.042c-1.553,0.251-2.636,0.396-4.24,0.488c-1.371,0.066-2.478,0.097-3.483,0.098
	c-1.008-0.001-2.115-0.032-3.475-0.097c-1.615-0.092-2.698-0.237-4.271-0.491l-0.272-0.039c-1.23-0.177-2.392-0.344-3.453-0.671
	c-0.131-0.047-0.217-0.085-0.273-0.113c0.011-0.248,0.063-0.526,0.116-0.816l0.037-0.203c0.255-1.419,0.744-2.667,1.455-3.714
	c0.371-0.55,0.859-0.97,1.445-1.231l0.213-0.103c2.039-0.989,3.8-1.843,5.841-3.092l1.212-0.741l-0.956-1.051
	c-0.528-0.58-0.921-1.351-1.17-2.292l-0.075-0.284l-0.201-0.215c-0.898-0.966-1.365-2.096-1.293-3.12L17.532,12.479z"/>
<path fill="#FFFFFF" d="M33.635,24.609L31.36,20l-2.274,4.609L24,25.347l3.68,3.587L26.811,34l4.549-2.391L35.909,34l-0.869-5.065
	l3.68-3.587L33.635,24.609z"/>
</svg>
