<?xml version="1.0" encoding="utf-8"?>
<!-- Generator: Adobe Illustrator 17.0.2, SVG Export Plug-In . SVG Version: 6.00 Build 0)  -->
<!DOCTYPE svg PUBLIC "-//W3C//DTD SVG 1.1//EN" "http://www.w3.org/Graphics/SVG/1.1/DTD/svg11.dtd">
<svg version="1.1" id="Layer_1" xmlns="http://www.w3.org/2000/svg" xmlns:xlink="http://www.w3.org/1999/xlink" x="0px" y="0px"
	 width="48px" height="48px" viewBox="0 0 48 48" enable-background="new 0 0 48 48" xml:space="preserve">
<path fill="#FFFFFF" d="M26.274,38.609L24,34l-2.274,4.609l-5.086,0.739l3.68,3.587L19.451,48L24,45.609L28.549,48l-0.869-5.065
	l3.68-3.587L26.274,38.609z M26.695,43.104l0.526,3.068l-2.755-1.449L24,44.479l-0.465,0.245l-2.755,1.449l0.526-3.068l0.089-0.518
	l-0.376-0.367l-2.229-2.173l3.081-0.448l0.52-0.076l0.233-0.471L24,36.26l1.378,2.792l0.233,0.471l0.52,0.076l3.081,0.448
	l-2.229,2.173l-0.376,0.367L26.695,43.104z M37.95,33.95L36,30l-1.95,3.95l-4.359,0.633l3.154,3.075L32.101,42L36,39.95L39.899,42
	l-0.745-4.342l3.154-3.075L37.95,33.95z M38.169,37.827l0.402,2.345l-2.106-1.107L36,38.82l-0.465,0.245l-2.106,1.107l0.402-2.345
	l0.089-0.518l-0.376-0.367l-1.703-1.66l2.354-0.342l0.52-0.076l0.233-0.471L36,32.26l1.053,2.133l0.233,0.471l0.52,0.076
	l2.354,0.342l-1.703,1.66l-0.376,0.367L38.169,37.827z M48,32.292l-2.18-0.317L44.846,30l-0.975,1.975l-2.18,0.317l1.577,1.537
	L42.896,36l1.95-1.025L46.795,36l-0.372-2.171L48,32.292z M45.725,33.113l-0.376,0.367l0.089,0.518l0.03,0.174l-0.156-0.082
	l-0.465-0.245L44.38,34.09l-0.156,0.082l0.03-0.174l0.089-0.518l-0.376-0.367L43.84,32.99l0.174-0.025l0.52-0.076l0.233-0.471
	l0.078-0.158l0.078,0.158l0.233,0.471l0.52,0.076l0.174,0.025L45.725,33.113z M18.309,34.584l-4.359-0.633L12,30l-1.95,3.95
	l-4.359,0.633l3.154,3.075L8.101,42L12,39.95L15.899,42l-0.745-4.342L18.309,34.584z M12.465,39.065L12,38.82l-0.465,0.245
	l-2.106,1.107l0.402-2.345l0.089-0.518l-0.377-0.367l-1.703-1.66l2.354-0.342l0.52-0.076l0.233-0.471L12,32.26l1.053,2.133
	l0.233,0.471l0.52,0.076l2.354,0.342l-1.703,1.66l-0.377,0.367l0.089,0.518l0.402,2.345L12.465,39.065z M6.309,32.292l-2.18-0.317
	L3.154,30L2.18,31.975L0,32.292l1.577,1.537L1.205,36l1.95-1.025L5.104,36l-0.372-2.171L6.309,32.292z M4.034,33.113L3.657,33.48
	l0.089,0.518l0.03,0.174L3.62,34.09l-0.465-0.245L2.689,34.09l-0.156,0.082l0.03-0.174l0.089-0.518l-0.376-0.367L2.149,32.99
	l0.174-0.025l0.52-0.076l0.233-0.471l0.078-0.158l0.078,0.158l0.233,0.471l0.52,0.076L4.16,32.99L4.034,33.113z M21.235,21.147
	c-1.755,1.073-3.226,1.78-5.07,2.674c-0.661,0.294-1.219,0.79-1.623,1.388c-0.72,1.059-1.169,2.288-1.395,3.545
	c-0.08,0.448-0.183,0.903-0.137,1.362c0.108,0.401,0.527,0.591,0.885,0.72c1.095,0.34,2.235,0.49,3.366,0.653
	c1.386,0.225,2.32,0.347,3.722,0.427C21.99,31.963,22.995,31.999,24,32c1.005-0.001,2.01-0.037,3.015-0.085
	c1.402-0.08,2.336-0.202,3.722-0.427c1.131-0.163,2.272-0.314,3.366-0.653c0.358-0.129,0.777-0.319,0.885-0.72
	c0.046-0.458-0.056-0.914-0.137-1.362c-0.226-1.257-0.675-2.485-1.395-3.545c-0.404-0.598-0.962-1.094-1.623-1.388
	c-1.843-0.894-3.315-1.601-5.07-2.674c0.607-0.667,0.994-1.503,1.223-2.369c0.879-0.945,1.5-2.229,1.354-3.545
	c-0.012-0.31-0.117-0.691-0.479-0.736c-0.009-0.785-0.017-1.57-0.035-2.356c-0.069-1.314-0.706-2.641-1.828-3.368
	C26.117,8.184,25.048,8.007,24,8c-1.048,0.007-2.117,0.184-3.001,0.772c-1.122,0.727-1.758,2.054-1.828,3.368
	c-0.017,0.786-0.025,1.571-0.035,2.356c-0.362,0.046-0.467,0.426-0.479,0.736c-0.146,1.317,0.475,2.601,1.354,3.546
	C20.241,19.644,20.628,20.48,21.235,21.147z M20.127,15.379l0.01-0.872l0.002-0.2c0.008-0.715,0.016-1.429,0.031-2.114
	c0.057-1.081,0.583-2.07,1.383-2.589C22.152,9.206,22.953,9.008,24,9c1.047,0.008,1.848,0.206,2.457,0.611
	c0.79,0.512,1.316,1.501,1.372,2.551c0.016,0.715,0.024,1.43,0.032,2.144l0.002,0.2l0.01,0.872l0.483,0.061
	c0.061,0.872-0.336,1.835-1.101,2.657l-0.171,0.184l-0.064,0.242c-0.212,0.801-0.547,1.458-0.996,1.951l-0.814,0.895L26.243,22
	c1.738,1.063,3.237,1.79,4.973,2.632l0.212,0.102c0.469,0.208,0.884,0.566,1.202,1.036c0.604,0.888,1.02,1.951,1.237,3.159
	l0.032,0.174c0.046,0.247,0.09,0.484,0.099,0.696c-0.042,0.022-0.104,0.049-0.191,0.081c-0.945,0.293-1.934,0.435-2.982,0.586
	l-0.248,0.036c-1.322,0.214-2.245,0.337-3.61,0.415c-1.167,0.056-2.11,0.082-2.966,0.083c-0.858-0.001-1.801-0.028-2.959-0.083
	c-1.375-0.079-2.298-0.202-3.636-0.418l-0.232-0.033c-1.048-0.15-2.037-0.292-2.94-0.572c-0.111-0.04-0.185-0.072-0.233-0.096
	c0.009-0.211,0.053-0.448,0.099-0.694l0.032-0.173c0.217-1.208,0.634-2.271,1.239-3.162c0.316-0.468,0.731-0.826,1.23-1.048
	l0.181-0.088c1.736-0.842,3.235-1.569,4.973-2.632l1.032-0.631l-0.814-0.895c-0.449-0.494-0.784-1.15-0.996-1.951l-0.064-0.242
	l-0.171-0.184c-0.765-0.822-1.162-1.785-1.101-2.657L20.127,15.379z M0.012,22.115c-0.046-0.458,0.056-0.914,0.137-1.362
	c0.226-1.257,0.675-2.485,1.395-3.545c0.404-0.598,0.962-1.094,1.623-1.388c1.843-0.894,3.315-1.601,5.07-2.674
	c-0.607-0.667-0.995-1.503-1.223-2.369C6.133,9.833,5.512,8.549,5.658,7.232c0.012-0.31,0.117-0.691,0.479-0.736
	c0.009-0.785,0.017-1.57,0.035-2.355c0.069-1.314,0.706-2.641,1.828-3.368C8.883,0.184,9.952,0.007,11,0
	c1.048,0.007,2.117,0.184,3.001,0.772c1.122,0.727,1.758,2.054,1.828,3.368c0.017,0.786,0.026,1.571,0.035,2.355
	c0.362,0.046,0.467,0.426,0.479,0.736c0.146,1.317-0.475,2.601-1.354,3.545c-0.229,0.866-0.616,1.702-1.223,2.369
	c1.364,0.834,2.562,1.449,3.892,2.101c-0.031,0.375-0.011,0.756,0.051,1.137c-1.523-0.741-2.901-1.428-4.465-2.385l-1.032-0.631
	l0.814-0.895c0.449-0.494,0.785-1.15,0.996-1.951l0.064-0.242l0.171-0.184c0.765-0.822,1.162-1.785,1.101-2.657l-0.483-0.061
	l-0.01-0.872l-0.002-0.201c-0.008-0.714-0.016-1.429-0.032-2.144c-0.056-1.05-0.582-2.039-1.372-2.551
	C12.848,1.206,12.047,1.008,11,1C9.953,1.008,9.152,1.206,8.553,1.604c-0.8,0.519-1.326,1.508-1.383,2.589
	C7.155,4.878,7.147,5.592,7.139,6.307L7.137,6.507l-0.01,0.872L6.643,7.44c-0.061,0.872,0.336,1.835,1.101,2.657l0.171,0.183
	l0.064,0.242c0.212,0.801,0.547,1.458,0.996,1.951l0.814,0.895L8.757,14c-1.738,1.063-3.237,1.79-4.973,2.632L3.602,16.72
	c-0.499,0.223-0.914,0.58-1.23,1.048c-0.605,0.891-1.022,1.954-1.239,3.162l-0.031,0.173c-0.046,0.247-0.089,0.483-0.099,0.694
	c0.048,0.024,0.121,0.056,0.233,0.096c0.903,0.279,1.892,0.421,2.94,0.572l0.232,0.033c1.339,0.217,2.262,0.34,3.636,0.418
	C9.2,22.972,10.143,22.999,11.001,23c0.856-0.001,1.799-0.028,2.966-0.083c0.832-0.048,1.503-0.115,2.196-0.207
	c-0.086,0.042-0.165,0.081-0.253,0.123l-0.182,0.088c-0.501,0.222-0.965,0.559-1.377,0.971c-0.115,0.008-0.217,0.017-0.338,0.024
	C13.01,23.963,12.005,23.999,11,24c-1.005-0.001-2.01-0.037-3.015-0.085c-1.402-0.08-2.336-0.202-3.722-0.427
	c-1.131-0.163-2.272-0.314-3.366-0.653C0.538,22.706,0.12,22.515,0.012,22.115z M30.292,16.384c0.063-0.381,0.082-0.762,0.051-1.137
	c1.33-0.652,2.528-1.266,3.892-2.101c-0.607-0.667-0.994-1.503-1.223-2.369c-0.879-0.945-1.5-2.229-1.354-3.545
	c0.012-0.31,0.117-0.691,0.479-0.736c0.009-0.785,0.017-1.57,0.035-2.356c0.069-1.314,0.706-2.641,1.828-3.368
	C34.883,0.184,35.952,0.007,37,0c1.048,0.007,2.117,0.184,3.001,0.772c1.122,0.727,1.758,2.054,1.828,3.368
	c0.017,0.786,0.026,1.571,0.035,2.355c0.362,0.046,0.467,0.426,0.479,0.736c0.146,1.317-0.475,2.601-1.354,3.545
	c-0.229,0.866-0.616,1.702-1.223,2.369c1.755,1.073,3.226,1.78,5.07,2.674c0.661,0.294,1.219,0.79,1.623,1.388
	c0.72,1.059,1.169,2.288,1.395,3.545c0.08,0.448,0.183,0.903,0.137,1.362c-0.109,0.401-0.527,0.591-0.885,0.72
	c-1.095,0.34-2.235,0.49-3.366,0.653c-1.387,0.225-2.32,0.347-3.722,0.427C39.011,23.963,38.005,23.999,37,24
	c-1.005-0.001-2.01-0.037-3.015-0.085c-0.121-0.007-0.224-0.016-0.339-0.024c-0.414-0.413-0.885-0.753-1.406-0.985l-0.151-0.074
	c-0.088-0.042-0.167-0.081-0.253-0.123c0.697,0.092,1.37,0.16,2.206,0.207c1.158,0.055,2.101,0.082,2.959,0.083
	c0.855-0.001,1.799-0.028,2.966-0.083c1.365-0.078,2.288-0.201,3.61-0.415l0.248-0.036c1.048-0.15,2.037-0.292,2.982-0.586
	c0.088-0.032,0.149-0.059,0.191-0.081c-0.009-0.211-0.053-0.448-0.099-0.696l-0.032-0.174c-0.217-1.207-0.633-2.27-1.237-3.159
	c-0.318-0.47-0.733-0.828-1.202-1.036l-0.212-0.102c-1.736-0.842-3.235-1.569-4.973-2.632l-1.032-0.631l0.814-0.895
	c0.449-0.494,0.784-1.15,0.996-1.951l0.064-0.242l0.171-0.184c0.765-0.822,1.162-1.785,1.101-2.657l-0.484-0.061l-0.01-0.872
	l-0.002-0.201c-0.008-0.714-0.016-1.429-0.032-2.144c-0.056-1.05-0.582-2.039-1.372-2.551C38.848,1.206,38.047,1.008,37,1
	c-1.047,0.008-1.848,0.206-2.447,0.604c-0.8,0.519-1.326,1.508-1.383,2.589c-0.015,0.685-0.023,1.399-0.031,2.114l-0.002,0.201
	l-0.01,0.872L32.643,7.44c-0.061,0.872,0.336,1.835,1.101,2.657l0.171,0.184l0.064,0.242c0.212,0.801,0.547,1.458,0.996,1.951
	l0.814,0.895L34.757,14C33.193,14.956,31.815,15.643,30.292,16.384z"/>
</svg>
